<svg xmlns="http://www.w3.org/2000/svg" width="227" height="48" viewBox="0 0 227 48">
    <path fill="#0D356C" fill-rule="nonzero" d="M122.155 18.38h1.12c1.074 0 1.743.645 1.743 2.342 0 2.222-1.131 2.37-1.742 2.37h-1.121V18.38zm9.027 15.972l-4.058-8.382c1.659-1.247 2.714-3.732 2.714-5.465 0-2.651-1.642-6.632-6.1-6.628l-6.296-.005v20.476l4.713.004v-7l1.018-.015 2.584 7.015h5.425zm-42.084-20.44h11.618L95.6 29.626h5.403v4.765H88.921l5.58-15.746h-5.403v-4.733zm-16.315 8.731c.008.228.014 1.309.014 1.536 0 5.254-1.1 10.509-6.686 10.509-5.584 0-7.642-5.255-7.649-10.509 0-.23.004-.46.012-.682.222-5.937 3.444-9.829 8.824-9.829 1.376 0 3.42.586 4.602 1.496l-1.388 4.226c-1.302-.675-2.205-1.027-3.747-1.021-2.203.01-3.216 1.956-3.34 5.128-.01.218-.014.447-.014.682 0 3.606 1.164 5.563 2.822 5.563 1.283 0 2.007-1.105 2.19-3.331h-2.497v-3.756h6.801l.056-.012zm115.288-2.55l.893 6.245h-1.786l.893-6.246zm-7.005 14.29h4.782l.576-3.54h3.292l.576 3.54h4.783l-4.038-20.475h-5.932l-4.039 20.474zm-32.094-20.507h3.997l3.54 4.823 3.55-4.823h3.994V34.35h-4.707V21.86l-2.837 3.585-2.827-3.585v12.496l-4.71-.006V13.876zm63.8-.004h4.61l-.007 7.366h1.002l2.643-7.366h5.013l-3.597 9.716 4.101 10.76h-5.421l-2.647-8.23h-1.094l.007 8.23h-4.61V13.872zm-15.855 0h3.889l4.433 9.06.127.745v-9.805h4.61v20.476h-3.949l-4.35-9.217-.147-.8v10.017h-4.613V13.872zm-57.732 15.777c-1.659 0-2.52-1.957-2.52-5.563 0-3.608.861-5.564 2.52-5.564 1.657 0 2.517 1.956 2.517 5.564 0 3.606-.86 5.563-2.517 5.563zm0 4.946c5.58 0 7.466-5.255 7.466-10.509 0-5.256-1.885-10.51-7.466-10.51-5.585 0-7.47 5.254-7.47 10.51 0 5.254 1.885 10.51 7.47 10.51zM107.99 18.38h1.122c1.071 0 1.739.645 1.739 2.342 0 2.222-1.13 2.37-1.739 2.37h-1.122V18.38zm-4.714 15.968l4.714.004v-6.757h1.583c4.668.005 6.1-4.225 6.1-6.907 0-2.651-1.643-6.815-6.1-6.81l-6.297-.006v20.476zm69.84-4.7h-1.334v-3.545h1.222c1.354-.045 2.029.685 2.029 1.8 0 .806-.534 1.745-1.916 1.745zm1.422-9.54c0 1.455-1.41 1.76-2.165 1.76h-.59v-3.44c.196-.003.373-.005.501-.005.453 0 2.254-.038 2.254 1.685zm2.381 3.497s2.32-1.352 2.308-4.562c-.008-2.558-1.79-5.17-5.639-5.17l-6.518-.002-.002 20.48h6.672c3.414.002 6.21-1.755 6.219-5.879.004-3.03-1.78-4.148-3.04-4.867zM80.55 20.057l.893 6.247h-1.784l.891-6.247zm-7.005 14.29h4.784l.575-3.539h3.292l.577 3.54h4.781l-4.038-20.476h-5.932l-4.039 20.476zm-35.32-12.659c-.175.15-.366.299-.575.459-1.29 1-3.326 1.801-6.155 2.565-5.866 1.586-10.123 1.824-14.968 3.019-.938.23-1.926.55-2.84.928.914.457 1.882.888 2.884 1.268 1.962-.564 2.909-.824 5.76-1.311 1.083-.186 4.424-.776 6.846-1.294 4.357-.935 10.747-2.97 9.047-5.634zm-2.809-5.528c-.925-.421-2.091-.836-3.32-1.17-.548.447-1.194.835-2.11 1.195 1.536.273 2.695.704 3.983 1.082.235.118 1.28-.874 1.447-1.107zm-21.372 5.882c5.698-1.683 11.683-2.203 17.739-3.834-2.367-.641-3.662-.914-6.166-.618-3.635.43-7.63 1.23-11.05 2.253-1.338.401-8.404 2.417-6.364 5.24 0 .036 1.213-1.675 5.84-3.04zm-3.93 9.696c-.01.526.304.992 1.001 1.565.088-.284.21-.494.418-.766a20.26 20.26 0 0 1-1.419-.8zm2.675-.268c.427-.257.941-.512 1.534-.75a59.785 59.785 0 0 1-2.485-1.098 5.932 5.932 0 0 0-.993.756c.644.374 1.286.745 1.944 1.092zm21.908-12.21c-1.152.536-2.799 1.09-5.163 1.691-1.932.49-6.654 1.172-11.723 2.28-1.61.355-5.954 1.389-8.09 3.221.595.481.965.603 1.63.976.89-.571 2.079-1.111 3.869-1.593 3.113-.838 5.432-1.197 8.229-1.643 2.782-.443 8.002-1.546 10.897-2.592.941-.344 1.821-.78 2.475-1.292-.203-.227-2.063-1.133-2.124-1.048zm1.682-1.041c.566.281 1.074.489 1.571.84.357-.685.138-1.132-.603-1.765a6.708 6.708 0 0 1-.968.925zM9.841 28.598c-.506-.288-.852-.49-1.28-.786-.233.506.196 1.057.66 1.324.195-.197.417-.357.62-.538zm24.256-15.865c-.103.39-.52.842-.807 1.15.858.227 1.722.544 2.552.861-.102-.767-.99-1.51-1.745-2.011zM7.28 17.627c5.97-3.95 12.573-6.247 23.76-4.3.621-.36.961-.702 1.12-1.437-2.795-1.02-5.826-1.375-9.74-1.31-3.53.095-9.865 1.416-13.247 3.435l1.026-1.296c2.37-1.398 8.54-3.263 13.164-3.353 3.26-.06 4.957.123 8.828 1.175-.336-.67-1.145-1.004-2.316-1.534-3.753-1.7-10.761-1.856-16.505.689.729-.476 1.44-.923 2.369-1.352 1.892-.873 4.99-1.718 8.864-1.653 3.098.052 6.77 1.138 9.024 3.393.373.442.59.919.684 1.294 1.785.91 2.817 1.758 3.4 2.769.236.51.34 1.08.234 1.71.74.45 1.09.82 1.455 1.312.27.415.463.88.514 1.31.07.564.132 1.197-.452 1.935.618.3 1.088 1.152 1.167 1.53.28 1.353-.583 2.673-1.726 3.7-1.307 1.16-4.2 2.533-6.554 3.14-4.681 1.188-8.813 1.695-12.1 2.302 1.464.35 3.47.834 6.75.834 6.974 0 13.15-3.33 13.15-3.33s-.143.44-.277.816c-4.43 2.708-11.493 3.85-14.497 3.71-3.065-.141-5.63-.597-8.15-1.378a15.25 15.25 0 0 0-2.267.781c3.835 1.757 6.727 2.151 10.008 2.392 3.34.247 8.874-.564 13.545-2.27-.21.212-.323.554-.54.756-2.39 1.259-7.452 2.534-9.988 2.642-2.527.105-5.612.011-8.292-.506-2.316-.447-4.193-1.186-6.162-2.058-.36.262-.538.618-.602.996 7.69 4.05 14.895 4.138 23.084 1.571l-.75.728c-9.022 3.684-16.076 2.258-21.532-.396-.173-.082-.396-.17-.55-.27.498.887 4.672 3.955 9.332 4.34 3.211.267 7.135-.289 9.46-1.227l-1.36.717c-1.13.561-4.112 1.825-8.29 1.547-5.565-.38-8.695-2.857-10.097-4.159-.653-.602-.96-1.311-1.16-2.175-1.256-.666-2.048-1.349-2.7-2.378-.386-.607-.31-1.287-.212-1.857.034-.178.078-.345.145-.512-.603-.436-1.213-.911-1.474-1.386-.55-1-.214-1.862.167-2.525-.33-.378-.632-.757-.773-1.143-.145-.461-.172-.895-.133-1.382.106-.843.553-1.616 1.123-2.277 1.218-1.414 3.124-2.514 6.404-3.608 3.203-1.068 4.494-1.231 6.91-1.796 2.82-.659 6.191-.87 9.02-1.863-7.871-1.396-16.048-.131-22.716 4.5l.455-1.293zm-6.474 6.46c0-12.543 10.118-22.748 22.555-22.748s22.556 10.205 22.556 22.747S35.798 46.833 23.36 46.833C10.924 46.833.806 36.628.806 24.086zm-.806 0c0 12.99 10.48 23.558 23.36 23.558 12.883 0 23.363-10.569 23.363-23.559S36.243.527 23.36.527C10.479.527 0 11.097 0 24.087z"/>
</svg>
